<mxfile host="Electron" agent="Mozilla/5.0 (Windows NT 10.0; Win64; x64) AppleWebKit/537.36 (KHTML, like Gecko) draw.io/27.0.5 Chrome/134.0.6998.205 Electron/35.3.0 Safari/537.36" version="27.0.5">
  <diagram name="Page-1" id="0783ab3e-0a74-02c8-0abd-f7b4e66b4bec">
    <mxGraphModel dx="1042" dy="626" grid="1" gridSize="10" guides="1" tooltips="1" connect="1" arrows="1" fold="1" page="1" pageScale="1" pageWidth="850" pageHeight="1100" background="none" math="0" shadow="0">
      <root>
        <mxCell id="0" />
        <mxCell id="1" parent="0" />
        <mxCell id="1c1d494c118603dd-1" value="Hardware-Level" style="swimlane;html=1;childLayout=stackLayout;startSize=20;rounded=0;shadow=0;comic=0;labelBackgroundColor=none;strokeWidth=1;fontFamily=Verdana;fontSize=12;align=center;" parent="1" vertex="1">
          <mxGeometry x="10" y="220" width="250" height="560" as="geometry" />
        </mxCell>
        <mxCell id="1c1d494c118603dd-2" value="MBOT" style="swimlane;html=1;startSize=20;" parent="1c1d494c118603dd-1" vertex="1">
          <mxGeometry y="20" width="250" height="540" as="geometry" />
        </mxCell>
        <mxCell id="Gl-JNUL5jQseIMreKZnG-95" style="edgeStyle=orthogonalEdgeStyle;rounded=0;orthogonalLoop=1;jettySize=auto;html=1;exitX=0.5;exitY=1;exitDx=0;exitDy=0;entryX=0.5;entryY=0;entryDx=0;entryDy=0;" parent="1c1d494c118603dd-2" source="Gl-JNUL5jQseIMreKZnG-93" target="Gl-JNUL5jQseIMreKZnG-94" edge="1">
          <mxGeometry relative="1" as="geometry" />
        </mxCell>
        <mxCell id="Gl-JNUL5jQseIMreKZnG-93" value="" style="ellipse;whiteSpace=wrap;html=1;rounded=0;shadow=0;comic=0;labelBackgroundColor=none;strokeWidth=1;fillColor=#000000;fontFamily=Verdana;fontSize=12;align=center;" parent="1c1d494c118603dd-2" vertex="1">
          <mxGeometry x="115" y="30" width="20" height="20" as="geometry" />
        </mxCell>
        <mxCell id="Gl-JNUL5jQseIMreKZnG-99" style="edgeStyle=orthogonalEdgeStyle;rounded=0;orthogonalLoop=1;jettySize=auto;html=1;exitX=0.5;exitY=1;exitDx=0;exitDy=0;entryX=0.5;entryY=0;entryDx=0;entryDy=0;" parent="1c1d494c118603dd-2" source="Gl-JNUL5jQseIMreKZnG-94" target="Gl-JNUL5jQseIMreKZnG-96" edge="1">
          <mxGeometry relative="1" as="geometry" />
        </mxCell>
        <mxCell id="Gl-JNUL5jQseIMreKZnG-94" value="(School)&lt;div&gt;Network-Module&lt;/div&gt;" style="rounded=1;whiteSpace=wrap;html=1;shadow=0;comic=0;labelBackgroundColor=none;strokeWidth=1;fontFamily=Verdana;fontSize=12;align=center;arcSize=50;" parent="1c1d494c118603dd-2" vertex="1">
          <mxGeometry x="70" y="70" width="110" height="40" as="geometry" />
        </mxCell>
        <mxCell id="Gl-JNUL5jQseIMreKZnG-100" style="edgeStyle=orthogonalEdgeStyle;rounded=0;orthogonalLoop=1;jettySize=auto;html=1;exitX=0.5;exitY=1;exitDx=0;exitDy=0;entryX=0.5;entryY=0;entryDx=0;entryDy=0;" parent="1c1d494c118603dd-2" source="Gl-JNUL5jQseIMreKZnG-96" target="Gl-JNUL5jQseIMreKZnG-98" edge="1">
          <mxGeometry relative="1" as="geometry" />
        </mxCell>
        <mxCell id="Gl-JNUL5jQseIMreKZnG-96" value="Waiting for further commands" style="rounded=1;whiteSpace=wrap;html=1;shadow=0;comic=0;labelBackgroundColor=none;strokeWidth=1;fontFamily=Verdana;fontSize=12;align=center;arcSize=50;" parent="1c1d494c118603dd-2" vertex="1">
          <mxGeometry x="55" y="140" width="140" height="40" as="geometry" />
        </mxCell>
        <mxCell id="Gl-JNUL5jQseIMreKZnG-98" value="&lt;font size=&quot;3&quot;&gt;&lt;b&gt;&amp;nbsp; Execute Command&lt;/b&gt;&lt;/font&gt;&lt;div&gt;&lt;br&gt;&lt;/div&gt;&lt;div&gt;&lt;div&gt;&lt;font size=&quot;3&quot;&gt;&lt;br&gt;&lt;/font&gt;&lt;/div&gt;&lt;div&gt;&lt;font size=&quot;3&quot;&gt;&lt;br&gt;&lt;/font&gt;&lt;/div&gt;&lt;div&gt;&lt;font size=&quot;3&quot;&gt;&lt;br&gt;&lt;/font&gt;&lt;/div&gt;&lt;div&gt;&lt;font size=&quot;3&quot;&gt;&lt;br&gt;&lt;/font&gt;&lt;/div&gt;&lt;div&gt;&lt;font size=&quot;3&quot;&gt;&lt;br&gt;&lt;/font&gt;&lt;/div&gt;&lt;div&gt;&lt;font size=&quot;3&quot;&gt;&lt;br&gt;&lt;/font&gt;&lt;/div&gt;&lt;div&gt;&lt;font size=&quot;3&quot;&gt;&lt;br&gt;&lt;/font&gt;&lt;/div&gt;&lt;div&gt;&lt;font size=&quot;3&quot;&gt;&lt;br&gt;&lt;/font&gt;&lt;/div&gt;&lt;div&gt;&lt;font size=&quot;3&quot;&gt;&lt;br&gt;&lt;/font&gt;&lt;/div&gt;&lt;div&gt;&lt;font size=&quot;3&quot;&gt;&lt;br&gt;&lt;/font&gt;&lt;/div&gt;&lt;div&gt;&lt;font size=&quot;3&quot;&gt;&lt;br&gt;&lt;/font&gt;&lt;/div&gt;&lt;div&gt;&lt;font size=&quot;3&quot;&gt;&lt;br&gt;&lt;/font&gt;&lt;/div&gt;&lt;div&gt;&lt;br&gt;&lt;/div&gt;&lt;/div&gt;" style="rounded=1;whiteSpace=wrap;html=1;align=left;" parent="1c1d494c118603dd-2" vertex="1">
          <mxGeometry x="25" y="200" width="200" height="320" as="geometry" />
        </mxCell>
        <mxCell id="Gl-JNUL5jQseIMreKZnG-101" value="Physical Module" style="rounded=1;whiteSpace=wrap;html=1;shadow=0;comic=0;labelBackgroundColor=none;strokeWidth=1;fontFamily=Verdana;fontSize=12;align=center;arcSize=50;" parent="1c1d494c118603dd-2" vertex="1">
          <mxGeometry x="50" y="250" width="140" height="40" as="geometry" />
        </mxCell>
        <mxCell id="Gl-JNUL5jQseIMreKZnG-102" value="Automatic Module" style="rounded=1;whiteSpace=wrap;html=1;shadow=0;comic=0;labelBackgroundColor=none;strokeWidth=1;fontFamily=Verdana;fontSize=12;align=center;arcSize=50;" parent="1c1d494c118603dd-2" vertex="1">
          <mxGeometry x="55" y="300" width="140" height="40" as="geometry" />
        </mxCell>
        <mxCell id="Gl-JNUL5jQseIMreKZnG-103" value="Discovery Module" style="rounded=1;whiteSpace=wrap;html=1;shadow=0;comic=0;labelBackgroundColor=none;strokeWidth=1;fontFamily=Verdana;fontSize=12;align=center;arcSize=50;" parent="1c1d494c118603dd-2" vertex="1">
          <mxGeometry x="55" y="350" width="140" height="40" as="geometry" />
        </mxCell>
        <mxCell id="Gl-JNUL5jQseIMreKZnG-104" value="Change Color" style="rounded=1;whiteSpace=wrap;html=1;shadow=0;comic=0;labelBackgroundColor=none;strokeWidth=1;fontFamily=Verdana;fontSize=12;align=center;arcSize=50;" parent="1c1d494c118603dd-2" vertex="1">
          <mxGeometry x="55" y="410" width="140" height="40" as="geometry" />
        </mxCell>
        <mxCell id="Gl-JNUL5jQseIMreKZnG-105" value="Adjust Speed" style="rounded=1;whiteSpace=wrap;html=1;shadow=0;comic=0;labelBackgroundColor=none;strokeWidth=1;fontFamily=Verdana;fontSize=12;align=center;arcSize=50;" parent="1c1d494c118603dd-2" vertex="1">
          <mxGeometry x="55" y="460" width="140" height="40" as="geometry" />
        </mxCell>
        <mxCell id="Gl-JNUL5jQseIMreKZnG-1" value="Backend-Level" style="swimlane;html=1;childLayout=stackLayout;startSize=20;rounded=0;shadow=0;comic=0;labelBackgroundColor=none;strokeWidth=1;fontFamily=Verdana;fontSize=12;align=center;" parent="1" vertex="1">
          <mxGeometry x="350" y="20" width="1060" height="860" as="geometry" />
        </mxCell>
        <mxCell id="Gl-JNUL5jQseIMreKZnG-2" value="Mbot_Bridge" style="swimlane;html=1;startSize=20;" parent="Gl-JNUL5jQseIMreKZnG-1" vertex="1">
          <mxGeometry y="20" width="250" height="840" as="geometry" />
        </mxCell>
        <mxCell id="Gl-JNUL5jQseIMreKZnG-89" value="Send Command to the MBot" style="rounded=1;whiteSpace=wrap;html=1;shadow=0;comic=0;labelBackgroundColor=none;strokeWidth=1;fontFamily=Verdana;fontSize=12;align=center;arcSize=50;" parent="Gl-JNUL5jQseIMreKZnG-2" vertex="1">
          <mxGeometry y="270" width="110" height="60" as="geometry" />
        </mxCell>
        <mxCell id="Gl-JNUL5jQseIMreKZnG-75" style="edgeStyle=orthogonalEdgeStyle;rounded=0;orthogonalLoop=1;jettySize=auto;html=1;exitX=0;exitY=0.5;exitDx=0;exitDy=0;entryX=1;entryY=0.5;entryDx=0;entryDy=0;" parent="Gl-JNUL5jQseIMreKZnG-1" source="Gl-JNUL5jQseIMreKZnG-74" target="Gl-JNUL5jQseIMreKZnG-73" edge="1">
          <mxGeometry relative="1" as="geometry" />
        </mxCell>
        <mxCell id="Gl-JNUL5jQseIMreKZnG-90" style="edgeStyle=orthogonalEdgeStyle;rounded=0;orthogonalLoop=1;jettySize=auto;html=1;exitX=0;exitY=0.5;exitDx=0;exitDy=0;entryX=0.5;entryY=0;entryDx=0;entryDy=0;" parent="Gl-JNUL5jQseIMreKZnG-1" source="Gl-JNUL5jQseIMreKZnG-79" target="Gl-JNUL5jQseIMreKZnG-89" edge="1">
          <mxGeometry relative="1" as="geometry" />
        </mxCell>
        <mxCell id="Gl-JNUL5jQseIMreKZnG-116" value="Configure the IP-Adresses" style="edgeLabel;html=1;align=center;verticalAlign=middle;resizable=0;points=[];" parent="Gl-JNUL5jQseIMreKZnG-90" vertex="1" connectable="0">
          <mxGeometry x="-0.0922" y="1" relative="1" as="geometry">
            <mxPoint as="offset" />
          </mxGeometry>
        </mxCell>
        <mxCell id="Gl-JNUL5jQseIMreKZnG-11" value="DB_Bridge" style="swimlane;html=1;startSize=20;" parent="Gl-JNUL5jQseIMreKZnG-1" vertex="1">
          <mxGeometry x="250" y="20" width="250" height="840" as="geometry" />
        </mxCell>
        <mxCell id="Gl-JNUL5jQseIMreKZnG-146" style="edgeStyle=orthogonalEdgeStyle;rounded=0;orthogonalLoop=1;jettySize=auto;html=1;exitX=0.5;exitY=1;exitDx=0;exitDy=0;entryX=0.25;entryY=0;entryDx=0;entryDy=0;" parent="Gl-JNUL5jQseIMreKZnG-11" source="Gl-JNUL5jQseIMreKZnG-73" target="Gl-JNUL5jQseIMreKZnG-143" edge="1">
          <mxGeometry relative="1" as="geometry" />
        </mxCell>
        <mxCell id="Gl-JNUL5jQseIMreKZnG-73" value="Locale Command Log" style="rounded=0;whiteSpace=wrap;html=1;shadow=0;comic=0;labelBackgroundColor=none;strokeWidth=1;fontFamily=Verdana;fontSize=12;align=center;arcSize=50;" parent="Gl-JNUL5jQseIMreKZnG-11" vertex="1">
          <mxGeometry x="10" y="405" width="140" height="30" as="geometry" />
        </mxCell>
        <mxCell id="Gl-JNUL5jQseIMreKZnG-143" value="Push Data to DB" style="rounded=1;whiteSpace=wrap;html=1;" parent="Gl-JNUL5jQseIMreKZnG-11" vertex="1">
          <mxGeometry x="100" y="520" width="130" height="30" as="geometry" />
        </mxCell>
        <mxCell id="Gl-JNUL5jQseIMreKZnG-151" value="Retrieve Route" style="rounded=1;whiteSpace=wrap;html=1;" parent="Gl-JNUL5jQseIMreKZnG-11" vertex="1">
          <mxGeometry x="100" y="590" width="130" height="30" as="geometry" />
        </mxCell>
        <mxCell id="Gl-JNUL5jQseIMreKZnG-137" style="edgeStyle=orthogonalEdgeStyle;rounded=0;orthogonalLoop=1;jettySize=auto;html=1;exitX=0;exitY=0.5;exitDx=0;exitDy=0;entryX=0.897;entryY=0.98;entryDx=0;entryDy=0;entryPerimeter=0;" parent="Gl-JNUL5jQseIMreKZnG-1" source="Gl-JNUL5jQseIMreKZnG-114" target="Gl-JNUL5jQseIMreKZnG-73" edge="1">
          <mxGeometry relative="1" as="geometry" />
        </mxCell>
        <mxCell id="Gl-JNUL5jQseIMreKZnG-139" style="edgeStyle=orthogonalEdgeStyle;rounded=0;orthogonalLoop=1;jettySize=auto;html=1;exitX=0;exitY=0.5;exitDx=0;exitDy=0;entryX=1;entryY=0.5;entryDx=0;entryDy=0;" parent="Gl-JNUL5jQseIMreKZnG-1" source="Gl-JNUL5jQseIMreKZnG-117" target="Gl-JNUL5jQseIMreKZnG-89" edge="1">
          <mxGeometry relative="1" as="geometry">
            <mxPoint x="130" y="270" as="targetPoint" />
            <Array as="points">
              <mxPoint x="420" y="449" />
              <mxPoint x="420" y="320" />
            </Array>
          </mxGeometry>
        </mxCell>
        <mxCell id="Gl-JNUL5jQseIMreKZnG-173" value="Send Directions" style="edgeLabel;html=1;align=center;verticalAlign=middle;resizable=0;points=[];" parent="Gl-JNUL5jQseIMreKZnG-139" vertex="1" connectable="0">
          <mxGeometry x="0.1686" relative="1" as="geometry">
            <mxPoint x="1" as="offset" />
          </mxGeometry>
        </mxCell>
        <mxCell id="Gl-JNUL5jQseIMreKZnG-145" style="edgeStyle=orthogonalEdgeStyle;rounded=0;orthogonalLoop=1;jettySize=auto;html=1;exitX=0;exitY=0.5;exitDx=0;exitDy=0;entryX=1;entryY=0.5;entryDx=0;entryDy=0;" parent="Gl-JNUL5jQseIMreKZnG-1" source="Gl-JNUL5jQseIMreKZnG-14" target="Gl-JNUL5jQseIMreKZnG-143" edge="1">
          <mxGeometry relative="1" as="geometry" />
        </mxCell>
        <mxCell id="Gl-JNUL5jQseIMreKZnG-158" style="edgeStyle=orthogonalEdgeStyle;rounded=0;orthogonalLoop=1;jettySize=auto;html=1;exitX=0;exitY=0.5;exitDx=0;exitDy=0;entryX=1;entryY=0.5;entryDx=0;entryDy=0;" parent="Gl-JNUL5jQseIMreKZnG-1" source="Gl-JNUL5jQseIMreKZnG-149" target="Gl-JNUL5jQseIMreKZnG-151" edge="1">
          <mxGeometry relative="1" as="geometry" />
        </mxCell>
        <mxCell id="Gl-JNUL5jQseIMreKZnG-27" value="v" style="swimlane;html=1;startSize=20;" parent="Gl-JNUL5jQseIMreKZnG-1" vertex="1">
          <mxGeometry x="500" y="20" width="560" height="840" as="geometry" />
        </mxCell>
        <mxCell id="Gl-JNUL5jQseIMreKZnG-189" style="edgeStyle=orthogonalEdgeStyle;rounded=0;orthogonalLoop=1;jettySize=auto;html=1;exitX=0;exitY=0.5;exitDx=0;exitDy=0;entryX=1;entryY=0.5;entryDx=0;entryDy=0;" parent="Gl-JNUL5jQseIMreKZnG-27" source="Gl-JNUL5jQseIMreKZnG-30" target="Gl-JNUL5jQseIMreKZnG-184" edge="1">
          <mxGeometry relative="1" as="geometry" />
        </mxCell>
        <mxCell id="Gl-JNUL5jQseIMreKZnG-30" value="&lt;i&gt;&lt;b&gt;Recieve Commands&lt;/b&gt;&lt;/i&gt;" style="rounded=1;whiteSpace=wrap;html=1;shadow=0;comic=0;labelBackgroundColor=none;strokeWidth=1;fontFamily=Verdana;fontSize=12;align=center;arcSize=50;" parent="Gl-JNUL5jQseIMreKZnG-27" vertex="1">
          <mxGeometry x="430" y="394" width="120" height="50" as="geometry" />
        </mxCell>
        <mxCell id="Gl-JNUL5jQseIMreKZnG-74" value="&lt;i&gt;Create Command Log&lt;/i&gt;" style="rounded=1;whiteSpace=wrap;html=1;shadow=0;comic=0;labelBackgroundColor=none;strokeWidth=1;fontFamily=Verdana;fontSize=12;align=center;arcSize=50;" parent="Gl-JNUL5jQseIMreKZnG-27" vertex="1">
          <mxGeometry x="30" y="70" width="105" height="35" as="geometry" />
        </mxCell>
        <mxCell id="Gl-JNUL5jQseIMreKZnG-81" style="edgeStyle=orthogonalEdgeStyle;rounded=0;orthogonalLoop=1;jettySize=auto;html=1;exitX=0.25;exitY=1;exitDx=0;exitDy=0;entryX=0.5;entryY=0;entryDx=0;entryDy=0;" parent="Gl-JNUL5jQseIMreKZnG-27" source="Gl-JNUL5jQseIMreKZnG-77" target="Gl-JNUL5jQseIMreKZnG-74" edge="1">
          <mxGeometry relative="1" as="geometry" />
        </mxCell>
        <mxCell id="Gl-JNUL5jQseIMreKZnG-82" style="edgeStyle=orthogonalEdgeStyle;rounded=0;orthogonalLoop=1;jettySize=auto;html=1;exitX=0.75;exitY=1;exitDx=0;exitDy=0;entryX=0.5;entryY=0;entryDx=0;entryDy=0;" parent="Gl-JNUL5jQseIMreKZnG-27" source="Gl-JNUL5jQseIMreKZnG-77" target="Gl-JNUL5jQseIMreKZnG-79" edge="1">
          <mxGeometry relative="1" as="geometry" />
        </mxCell>
        <mxCell id="Gl-JNUL5jQseIMreKZnG-77" value="" style="whiteSpace=wrap;html=1;rounded=0;shadow=0;comic=0;labelBackgroundColor=none;strokeWidth=1;fillColor=#000000;fontFamily=Verdana;fontSize=12;align=center;rotation=0;" parent="Gl-JNUL5jQseIMreKZnG-27" vertex="1">
          <mxGeometry x="19.5" y="50" width="267" height="10" as="geometry" />
        </mxCell>
        <mxCell id="Gl-JNUL5jQseIMreKZnG-79" value="&lt;i&gt;Configure Connection&lt;/i&gt;" style="rounded=1;whiteSpace=wrap;html=1;shadow=0;comic=0;labelBackgroundColor=none;strokeWidth=1;fontFamily=Verdana;fontSize=12;align=center;arcSize=50;" parent="Gl-JNUL5jQseIMreKZnG-27" vertex="1">
          <mxGeometry x="167" y="120" width="105" height="35" as="geometry" />
        </mxCell>
        <mxCell id="Gl-JNUL5jQseIMreKZnG-192" style="edgeStyle=orthogonalEdgeStyle;rounded=0;orthogonalLoop=1;jettySize=auto;html=1;exitX=0.5;exitY=1;exitDx=0;exitDy=0;entryX=0.5;entryY=0;entryDx=0;entryDy=0;" parent="Gl-JNUL5jQseIMreKZnG-27" source="Gl-JNUL5jQseIMreKZnG-80" target="Gl-JNUL5jQseIMreKZnG-30" edge="1">
          <mxGeometry relative="1" as="geometry">
            <mxPoint x="480" y="300.0000000000001" as="targetPoint" />
            <Array as="points">
              <mxPoint x="158" y="250" />
              <mxPoint x="490" y="250" />
            </Array>
          </mxGeometry>
        </mxCell>
        <mxCell id="Gl-JNUL5jQseIMreKZnG-80" value="" style="whiteSpace=wrap;html=1;rounded=0;shadow=0;comic=0;labelBackgroundColor=none;strokeWidth=1;fillColor=#000000;fontFamily=Verdana;fontSize=12;align=center;rotation=0;" parent="Gl-JNUL5jQseIMreKZnG-27" vertex="1">
          <mxGeometry x="22.5" y="170" width="270" height="10" as="geometry" />
        </mxCell>
        <mxCell id="Gl-JNUL5jQseIMreKZnG-84" style="edgeStyle=orthogonalEdgeStyle;rounded=0;orthogonalLoop=1;jettySize=auto;html=1;exitX=0.5;exitY=1;exitDx=0;exitDy=0;entryX=0.223;entryY=0.1;entryDx=0;entryDy=0;entryPerimeter=0;" parent="Gl-JNUL5jQseIMreKZnG-27" source="Gl-JNUL5jQseIMreKZnG-74" target="Gl-JNUL5jQseIMreKZnG-80" edge="1">
          <mxGeometry relative="1" as="geometry" />
        </mxCell>
        <mxCell id="Gl-JNUL5jQseIMreKZnG-106" style="edgeStyle=orthogonalEdgeStyle;rounded=0;orthogonalLoop=1;jettySize=auto;html=1;exitX=0.5;exitY=1;exitDx=0;exitDy=0;entryX=0.72;entryY=0.336;entryDx=0;entryDy=0;entryPerimeter=0;" parent="Gl-JNUL5jQseIMreKZnG-27" source="Gl-JNUL5jQseIMreKZnG-79" target="Gl-JNUL5jQseIMreKZnG-80" edge="1">
          <mxGeometry relative="1" as="geometry" />
        </mxCell>
        <mxCell id="Gl-JNUL5jQseIMreKZnG-194" style="edgeStyle=orthogonalEdgeStyle;rounded=0;orthogonalLoop=1;jettySize=auto;html=1;exitX=0.5;exitY=0;exitDx=0;exitDy=0;entryX=1;entryY=0.5;entryDx=0;entryDy=0;" parent="Gl-JNUL5jQseIMreKZnG-27" source="Gl-JNUL5jQseIMreKZnG-107" target="Gl-JNUL5jQseIMreKZnG-109" edge="1">
          <mxGeometry relative="1" as="geometry" />
        </mxCell>
        <mxCell id="Gl-JNUL5jQseIMreKZnG-195" style="edgeStyle=orthogonalEdgeStyle;rounded=0;orthogonalLoop=1;jettySize=auto;html=1;exitX=0;exitY=0.5;exitDx=0;exitDy=0;entryX=1;entryY=0.5;entryDx=0;entryDy=0;" parent="Gl-JNUL5jQseIMreKZnG-27" source="Gl-JNUL5jQseIMreKZnG-107" target="Gl-JNUL5jQseIMreKZnG-149" edge="1">
          <mxGeometry relative="1" as="geometry">
            <Array as="points">
              <mxPoint x="233" y="605" />
            </Array>
          </mxGeometry>
        </mxCell>
        <mxCell id="Gl-JNUL5jQseIMreKZnG-196" style="edgeStyle=orthogonalEdgeStyle;rounded=0;orthogonalLoop=1;jettySize=auto;html=1;exitX=0.5;exitY=1;exitDx=0;exitDy=0;entryX=1;entryY=0.5;entryDx=0;entryDy=0;" parent="Gl-JNUL5jQseIMreKZnG-27" source="Gl-JNUL5jQseIMreKZnG-107" target="Gl-JNUL5jQseIMreKZnG-162" edge="1">
          <mxGeometry relative="1" as="geometry">
            <mxPoint x="280.2857142857147" y="770" as="targetPoint" />
          </mxGeometry>
        </mxCell>
        <mxCell id="Gl-JNUL5jQseIMreKZnG-107" value="Which Mode sent?" style="rhombus;whiteSpace=wrap;html=1;" parent="Gl-JNUL5jQseIMreKZnG-27" vertex="1">
          <mxGeometry x="232.5" y="380" width="95" height="80" as="geometry" />
        </mxCell>
        <mxCell id="Gl-JNUL5jQseIMreKZnG-128" style="edgeStyle=orthogonalEdgeStyle;rounded=0;orthogonalLoop=1;jettySize=auto;html=1;exitX=0.5;exitY=1;exitDx=0;exitDy=0;entryX=0.5;entryY=0;entryDx=0;entryDy=0;" parent="Gl-JNUL5jQseIMreKZnG-27" source="Gl-JNUL5jQseIMreKZnG-109" target="Gl-JNUL5jQseIMreKZnG-126" edge="1">
          <mxGeometry relative="1" as="geometry" />
        </mxCell>
        <mxCell id="Gl-JNUL5jQseIMreKZnG-109" value="Controller" style="rounded=1;whiteSpace=wrap;html=1;shadow=0;comic=0;labelBackgroundColor=none;strokeWidth=1;fontFamily=Verdana;fontSize=12;align=center;arcSize=50;" parent="Gl-JNUL5jQseIMreKZnG-27" vertex="1">
          <mxGeometry x="55.5" y="350" width="122.5" height="30" as="geometry" />
        </mxCell>
        <mxCell id="Gl-JNUL5jQseIMreKZnG-134" style="edgeStyle=orthogonalEdgeStyle;rounded=0;orthogonalLoop=1;jettySize=auto;html=1;exitX=0.5;exitY=1;exitDx=0;exitDy=0;entryX=0.75;entryY=0;entryDx=0;entryDy=0;" parent="Gl-JNUL5jQseIMreKZnG-27" source="Gl-JNUL5jQseIMreKZnG-114" target="Gl-JNUL5jQseIMreKZnG-122" edge="1">
          <mxGeometry relative="1" as="geometry" />
        </mxCell>
        <mxCell id="Gl-JNUL5jQseIMreKZnG-114" value="Record Movements" style="rounded=1;whiteSpace=wrap;html=1;shadow=0;comic=0;labelBackgroundColor=none;strokeWidth=1;fontFamily=Verdana;fontSize=12;align=center;arcSize=50;" parent="Gl-JNUL5jQseIMreKZnG-27" vertex="1">
          <mxGeometry x="120" y="445" width="92.5" height="30" as="geometry" />
        </mxCell>
        <mxCell id="Gl-JNUL5jQseIMreKZnG-133" style="edgeStyle=orthogonalEdgeStyle;rounded=0;orthogonalLoop=1;jettySize=auto;html=1;exitX=0.5;exitY=1;exitDx=0;exitDy=0;entryX=0.25;entryY=0;entryDx=0;entryDy=0;" parent="Gl-JNUL5jQseIMreKZnG-27" source="Gl-JNUL5jQseIMreKZnG-117" target="Gl-JNUL5jQseIMreKZnG-122" edge="1">
          <mxGeometry relative="1" as="geometry" />
        </mxCell>
        <mxCell id="Gl-JNUL5jQseIMreKZnG-117" value="Execute Movements" style="rounded=1;whiteSpace=wrap;html=1;shadow=0;comic=0;labelBackgroundColor=none;strokeWidth=1;fontFamily=Verdana;fontSize=12;align=center;arcSize=50;" parent="Gl-JNUL5jQseIMreKZnG-27" vertex="1">
          <mxGeometry x="25.499999999999993" y="414" width="92.5" height="30" as="geometry" />
        </mxCell>
        <mxCell id="Gl-JNUL5jQseIMreKZnG-141" style="edgeStyle=orthogonalEdgeStyle;rounded=0;orthogonalLoop=1;jettySize=auto;html=1;exitX=0.5;exitY=1;exitDx=0;exitDy=0;" parent="Gl-JNUL5jQseIMreKZnG-27" source="Gl-JNUL5jQseIMreKZnG-122" target="Gl-JNUL5jQseIMreKZnG-14" edge="1">
          <mxGeometry relative="1" as="geometry" />
        </mxCell>
        <mxCell id="Gl-JNUL5jQseIMreKZnG-122" value="" style="whiteSpace=wrap;html=1;rounded=0;shadow=0;comic=0;labelBackgroundColor=none;strokeWidth=1;fillColor=#000000;fontFamily=Verdana;fontSize=12;align=center;rotation=0;" parent="Gl-JNUL5jQseIMreKZnG-27" vertex="1">
          <mxGeometry x="25" y="490" width="190" height="10" as="geometry" />
        </mxCell>
        <mxCell id="Gl-JNUL5jQseIMreKZnG-129" style="edgeStyle=orthogonalEdgeStyle;rounded=0;orthogonalLoop=1;jettySize=auto;html=1;exitX=0.25;exitY=1;exitDx=0;exitDy=0;entryX=0.5;entryY=0;entryDx=0;entryDy=0;" parent="Gl-JNUL5jQseIMreKZnG-27" source="Gl-JNUL5jQseIMreKZnG-126" target="Gl-JNUL5jQseIMreKZnG-117" edge="1">
          <mxGeometry relative="1" as="geometry" />
        </mxCell>
        <mxCell id="Gl-JNUL5jQseIMreKZnG-131" style="edgeStyle=orthogonalEdgeStyle;rounded=0;orthogonalLoop=1;jettySize=auto;html=1;exitX=0.75;exitY=1;exitDx=0;exitDy=0;entryX=0.5;entryY=0;entryDx=0;entryDy=0;" parent="Gl-JNUL5jQseIMreKZnG-27" source="Gl-JNUL5jQseIMreKZnG-126" target="Gl-JNUL5jQseIMreKZnG-114" edge="1">
          <mxGeometry relative="1" as="geometry" />
        </mxCell>
        <mxCell id="Gl-JNUL5jQseIMreKZnG-126" value="" style="whiteSpace=wrap;html=1;rounded=0;shadow=0;comic=0;labelBackgroundColor=none;strokeWidth=1;fillColor=#000000;fontFamily=Verdana;fontSize=12;align=center;rotation=0;" parent="Gl-JNUL5jQseIMreKZnG-27" vertex="1">
          <mxGeometry x="28" y="390" width="185" height="10" as="geometry" />
        </mxCell>
        <mxCell id="Gl-JNUL5jQseIMreKZnG-156" style="edgeStyle=orthogonalEdgeStyle;rounded=0;orthogonalLoop=1;jettySize=auto;html=1;exitX=0.5;exitY=1;exitDx=0;exitDy=0;entryX=0.5;entryY=1;entryDx=0;entryDy=0;" parent="Gl-JNUL5jQseIMreKZnG-27" source="Gl-JNUL5jQseIMreKZnG-14" target="Gl-JNUL5jQseIMreKZnG-30" edge="1">
          <mxGeometry relative="1" as="geometry" />
        </mxCell>
        <mxCell id="Gl-JNUL5jQseIMreKZnG-161" value="Mode Exited" style="edgeLabel;html=1;align=center;verticalAlign=middle;resizable=0;points=[];" parent="Gl-JNUL5jQseIMreKZnG-156" vertex="1" connectable="0">
          <mxGeometry x="-0.7631" relative="1" as="geometry">
            <mxPoint as="offset" />
          </mxGeometry>
        </mxCell>
        <mxCell id="Gl-JNUL5jQseIMreKZnG-14" value="Save Route" style="rounded=1;whiteSpace=wrap;html=1;shadow=0;comic=0;labelBackgroundColor=none;strokeWidth=1;fontFamily=Verdana;fontSize=12;align=center;arcSize=50;" parent="Gl-JNUL5jQseIMreKZnG-27" vertex="1">
          <mxGeometry x="55.5" y="520" width="130" height="30" as="geometry" />
        </mxCell>
        <mxCell id="Gl-JNUL5jQseIMreKZnG-157" style="edgeStyle=orthogonalEdgeStyle;rounded=0;orthogonalLoop=1;jettySize=auto;html=1;exitX=0.5;exitY=1;exitDx=0;exitDy=0;entryX=0.5;entryY=0;entryDx=0;entryDy=0;" parent="Gl-JNUL5jQseIMreKZnG-27" source="Gl-JNUL5jQseIMreKZnG-149" target="Gl-JNUL5jQseIMreKZnG-155" edge="1">
          <mxGeometry relative="1" as="geometry" />
        </mxCell>
        <mxCell id="Gl-JNUL5jQseIMreKZnG-149" value="Automatic" style="rounded=1;whiteSpace=wrap;html=1;shadow=0;comic=0;labelBackgroundColor=none;strokeWidth=1;fontFamily=Verdana;fontSize=12;align=center;arcSize=50;" parent="Gl-JNUL5jQseIMreKZnG-27" vertex="1">
          <mxGeometry x="55.5" y="590" width="122.5" height="30" as="geometry" />
        </mxCell>
        <mxCell id="Gl-JNUL5jQseIMreKZnG-159" style="edgeStyle=orthogonalEdgeStyle;rounded=0;orthogonalLoop=1;jettySize=auto;html=1;exitX=0.5;exitY=1;exitDx=0;exitDy=0;" parent="Gl-JNUL5jQseIMreKZnG-27" source="Gl-JNUL5jQseIMreKZnG-155" edge="1">
          <mxGeometry relative="1" as="geometry">
            <mxPoint x="490" y="570" as="targetPoint" />
          </mxGeometry>
        </mxCell>
        <mxCell id="Gl-JNUL5jQseIMreKZnG-160" value="Mode Exited" style="edgeLabel;html=1;align=center;verticalAlign=middle;resizable=0;points=[];" parent="Gl-JNUL5jQseIMreKZnG-159" vertex="1" connectable="0">
          <mxGeometry x="-0.3583" y="-2" relative="1" as="geometry">
            <mxPoint as="offset" />
          </mxGeometry>
        </mxCell>
        <mxCell id="Gl-JNUL5jQseIMreKZnG-155" value="Drive the Route" style="rounded=1;whiteSpace=wrap;html=1;shadow=0;comic=0;labelBackgroundColor=none;strokeWidth=1;fontFamily=Verdana;fontSize=12;align=center;arcSize=50;" parent="Gl-JNUL5jQseIMreKZnG-27" vertex="1">
          <mxGeometry x="55.5" y="640" width="122.5" height="30" as="geometry" />
        </mxCell>
        <mxCell id="Gl-JNUL5jQseIMreKZnG-166" style="edgeStyle=orthogonalEdgeStyle;rounded=0;orthogonalLoop=1;jettySize=auto;html=1;exitX=0.5;exitY=1;exitDx=0;exitDy=0;" parent="Gl-JNUL5jQseIMreKZnG-27" source="Gl-JNUL5jQseIMreKZnG-162" edge="1">
          <mxGeometry relative="1" as="geometry">
            <mxPoint x="490" y="690" as="targetPoint" />
          </mxGeometry>
        </mxCell>
        <mxCell id="Gl-JNUL5jQseIMreKZnG-168" value="Mode Exited" style="edgeLabel;html=1;align=center;verticalAlign=middle;resizable=0;points=[];" parent="Gl-JNUL5jQseIMreKZnG-166" vertex="1" connectable="0">
          <mxGeometry x="-0.34" y="-1" relative="1" as="geometry">
            <mxPoint as="offset" />
          </mxGeometry>
        </mxCell>
        <mxCell id="Gl-JNUL5jQseIMreKZnG-162" value="Discovery" style="rounded=1;whiteSpace=wrap;html=1;shadow=0;comic=0;labelBackgroundColor=none;strokeWidth=1;fontFamily=Verdana;fontSize=12;align=center;arcSize=50;" parent="Gl-JNUL5jQseIMreKZnG-27" vertex="1">
          <mxGeometry x="63" y="730" width="122.5" height="30" as="geometry" />
        </mxCell>
        <mxCell id="Gl-JNUL5jQseIMreKZnG-198" style="edgeStyle=orthogonalEdgeStyle;rounded=0;orthogonalLoop=1;jettySize=auto;html=1;exitX=0;exitY=0.5;exitDx=0;exitDy=0;entryX=1;entryY=0.5;entryDx=0;entryDy=0;" parent="Gl-JNUL5jQseIMreKZnG-27" source="Gl-JNUL5jQseIMreKZnG-184" target="Gl-JNUL5jQseIMreKZnG-107" edge="1">
          <mxGeometry relative="1" as="geometry" />
        </mxCell>
        <mxCell id="Gl-JNUL5jQseIMreKZnG-184" value="#" style="rhombus;whiteSpace=wrap;html=1;" parent="Gl-JNUL5jQseIMreKZnG-27" vertex="1">
          <mxGeometry x="330" y="380" width="80" height="80" as="geometry" />
        </mxCell>
        <mxCell id="Gl-JNUL5jQseIMreKZnG-186" value="" style="endArrow=classic;html=1;rounded=0;entryX=0.5;entryY=0;entryDx=0;entryDy=0;exitX=0.5;exitY=0;exitDx=0;exitDy=0;" parent="Gl-JNUL5jQseIMreKZnG-27" source="Gl-JNUL5jQseIMreKZnG-184" target="Gl-JNUL5jQseIMreKZnG-77" edge="1">
          <mxGeometry width="50" height="50" relative="1" as="geometry">
            <mxPoint x="360" y="370" as="sourcePoint" />
            <mxPoint x="460" y="210" as="targetPoint" />
            <Array as="points">
              <mxPoint x="370" y="30" />
              <mxPoint x="153" y="30" />
            </Array>
          </mxGeometry>
        </mxCell>
        <mxCell id="Gl-JNUL5jQseIMreKZnG-188" value="configure-ip" style="text;html=1;align=center;verticalAlign=middle;whiteSpace=wrap;rounded=0;" parent="Gl-JNUL5jQseIMreKZnG-27" vertex="1">
          <mxGeometry x="370" y="180" width="80" height="30" as="geometry" />
        </mxCell>
        <mxCell id="Gl-JNUL5jQseIMreKZnG-197" style="edgeStyle=orthogonalEdgeStyle;rounded=0;orthogonalLoop=1;jettySize=auto;html=1;exitX=0;exitY=0.5;exitDx=0;exitDy=0;entryX=0.5;entryY=1;entryDx=0;entryDy=0;" parent="Gl-JNUL5jQseIMreKZnG-1" source="Gl-JNUL5jQseIMreKZnG-162" target="Gl-JNUL5jQseIMreKZnG-89" edge="1">
          <mxGeometry relative="1" as="geometry" />
        </mxCell>
        <mxCell id="Gl-JNUL5jQseIMreKZnG-29" value="" style="ellipse;whiteSpace=wrap;html=1;rounded=0;shadow=0;comic=0;labelBackgroundColor=none;strokeWidth=1;fillColor=#000000;fontFamily=Verdana;fontSize=12;align=center;" parent="1" vertex="1">
          <mxGeometry x="1570" y="50" width="20" height="20" as="geometry" />
        </mxCell>
        <mxCell id="Gl-JNUL5jQseIMreKZnG-91" value="" style="shape=image;html=1;verticalAlign=top;verticalLabelPosition=bottom;labelBackgroundColor=#ffffff;imageAspect=0;aspect=fixed;image=https://cdn1.iconfinder.com/data/icons/unicons-line-vol-5/24/robot-128.png;fillColor=#000000;strokeColor=#000000;" parent="1" vertex="1">
          <mxGeometry x="85" y="120" width="100" height="100" as="geometry" />
        </mxCell>
        <mxCell id="Gl-JNUL5jQseIMreKZnG-97" value="" style="edgeStyle=isometricEdgeStyle;endArrow=none;html=1;rounded=0;exitX=1;exitY=0.25;exitDx=0;exitDy=0;entryX=0;entryY=0.5;entryDx=0;entryDy=0;" parent="1" source="Gl-JNUL5jQseIMreKZnG-96" target="Gl-JNUL5jQseIMreKZnG-89" edge="1">
          <mxGeometry width="50" height="100" relative="1" as="geometry">
            <mxPoint x="290" y="450" as="sourcePoint" />
            <mxPoint x="340" y="350" as="targetPoint" />
          </mxGeometry>
        </mxCell>
        <mxCell id="Gl-JNUL5jQseIMreKZnG-142" value="" style="shape=cylinder3;whiteSpace=wrap;html=1;boundedLbl=1;backgroundOutline=1;size=15;" parent="1" vertex="1">
          <mxGeometry x="740" y="910" width="70" height="90" as="geometry" />
        </mxCell>
        <mxCell id="Gl-JNUL5jQseIMreKZnG-170" value="" style="endArrow=classic;startArrow=classic;html=1;rounded=0;entryX=0.5;entryY=1;entryDx=0;entryDy=0;exitX=0.5;exitY=0;exitDx=0;exitDy=0;exitPerimeter=0;" parent="1" source="Gl-JNUL5jQseIMreKZnG-142" target="Gl-JNUL5jQseIMreKZnG-151" edge="1">
          <mxGeometry width="50" height="50" relative="1" as="geometry">
            <mxPoint x="760" y="730" as="sourcePoint" />
            <mxPoint x="810" y="680" as="targetPoint" />
          </mxGeometry>
        </mxCell>
        <mxCell id="Gl-JNUL5jQseIMreKZnG-152" style="edgeStyle=orthogonalEdgeStyle;rounded=0;orthogonalLoop=1;jettySize=auto;html=1;exitX=0;exitY=0.5;exitDx=0;exitDy=0;entryX=0;entryY=0;entryDx=0;entryDy=30;entryPerimeter=0;" parent="1" source="Gl-JNUL5jQseIMreKZnG-143" target="Gl-JNUL5jQseIMreKZnG-142" edge="1">
          <mxGeometry relative="1" as="geometry">
            <mxPoint x="690" y="940" as="targetPoint" />
          </mxGeometry>
        </mxCell>
        <mxCell id="Gl-JNUL5jQseIMreKZnG-182" value="Text" style="text;html=1;align=center;verticalAlign=middle;whiteSpace=wrap;rounded=0;" parent="1" vertex="1">
          <mxGeometry x="770" y="280" width="60" height="30" as="geometry" />
        </mxCell>
        <mxCell id="Jtrq3bjY2uhNiUK6Y-3X-1" value="" style="endArrow=classic;html=1;rounded=0;exitX=0.5;exitY=1;exitDx=0;exitDy=0;entryX=1;entryY=0.5;entryDx=0;entryDy=0;" edge="1" parent="1" source="Gl-JNUL5jQseIMreKZnG-29" target="Gl-JNUL5jQseIMreKZnG-30">
          <mxGeometry width="50" height="50" relative="1" as="geometry">
            <mxPoint x="1520" y="250" as="sourcePoint" />
            <mxPoint x="1570" y="200" as="targetPoint" />
            <Array as="points">
              <mxPoint x="1580" y="459" />
            </Array>
          </mxGeometry>
        </mxCell>
      </root>
    </mxGraphModel>
  </diagram>
</mxfile>
